<?xml version="1.0" encoding="UTF-8"?>
<svg id="Layer_1" data-name="Layer 1" xmlns="http://www.w3.org/2000/svg" viewBox="0 0 800 800">
  <defs>
    <style>
      .cls-1 {
        fill: #fff;
      }
    </style>
  </defs>
  <path class="cls-1" d="M311.67,562.67c0,2.33-2.33,4-5.67,4s-6,0-6-4,2.67-4,5.67-4,6,1.67,6,4ZM278.33,557.67c0,2.33,0,5,4.67,5.67,1.19.57,2.57.65,3.82.21,1.25-.44,2.28-1.35,2.85-2.55,0-2.33,0-4.67-4.67-5.67-4.67-1-6,0-6.67,2.33ZM325.67,556c-3,0-5,2.67-4.67,5.33.33,2.67,3,3.67,6.33,3,3.33-.67,5-3,4.67-5.33-.33-2.33-3-3.33-6.33-3ZM396.67,133.33c-35.15-.33-70.01,6.44-102.48,19.92-32.47,13.47-61.89,33.37-86.48,58.49-24.59,25.12-43.86,54.95-56.64,87.71-12.78,32.75-18.81,67.75-17.73,102.89-.93,57.56,16.14,113.98,48.83,161.37,32.69,47.39,79.36,83.39,133.5,102.96,13.67,2.33,18.67-6.33,18.67-13.33v-66.67s-75.33,16.67-91.33-33.33c0,0-12-33.33-29.67-40.33,0,0-24.67-17.33,1.67-17,8.62,1.16,16.86,4.33,24.04,9.25,7.18,4.92,13.1,11.46,17.3,19.08,3.49,6.84,8.34,12.89,14.25,17.78,5.91,4.9,12.76,8.53,20.13,10.69,7.37,2.15,15.1,2.78,22.71,1.84s14.96-3.43,21.58-7.31c1.26-13.92,7.26-26.98,17-37-60-7-120.67-15.67-120.67-122-.64-12.01,1.29-24.02,5.66-35.23,4.37-11.21,11.07-21.36,19.67-29.77-8.11-24.4-7.17-50.91,2.67-74.67,22.67-7.33,74.33,29.67,74.33,29.67,44.14-12.45,90.86-12.45,135,0,0,0,51.67-37,74.33-29.67,10.05,23.71,10.99,50.3,2.67,74.67,8.9,8.3,15.96,18.37,20.73,29.57,4.76,11.2,7.13,23.27,6.94,35.43,0,106.67-63.33,115-123.33,122,6.03,6.76,10.62,14.69,13.49,23.28,2.86,8.6,3.95,17.69,3.18,26.72v92.33c-.02,2.25.5,4.47,1.52,6.48,1.02,2.01,2.51,3.74,4.34,5.05,1.83,1.31,3.95,2.16,6.18,2.47,2.23.32,4.5.09,6.62-.66,54.04-19.41,100.62-55.3,133.16-102.61,32.54-47.31,49.39-103.65,48.18-161.06.31-35.5-6.46-70.7-19.93-103.54-13.47-32.84-33.36-62.67-58.51-87.72-25.15-25.05-55.05-44.84-87.94-58.18-32.89-13.35-68.12-19.99-103.62-19.55ZM238,513.67v5.67c.37.37.81.67,1.3.87.49.2,1.01.31,1.53.31s1.05-.1,1.53-.31c.49-.2.93-.5,1.3-.87v-6c0-2.33-4.33-1-5.67.33ZM226.33,504.67s0,3.33,2.33,4.33c.28.35.64.63,1.04.82.4.19.85.29,1.29.29s.89-.1,1.29-.29c.4-.19.76-.47,1.04-.82,0,0,0-3.33-2.33-4.33-2.33-1-4-1-4.67,0ZM259.67,544v7c0,2.33,5.67,2.67,7,0,1.33-2.67,0-4.67,0-7s-4.33-1.67-5.67,0h-1.33ZM247.33,527.67v6.67c0,2.67,4.67,3.67,6.33,2.67.84-.97,1.31-2.21,1.31-3.5s-.46-2.53-1.31-3.5c-1.67-2.67-4.33-3.67-6.33-2.33Z"/>
</svg>